<svg id="Gradient" height="512" viewBox="0 0 512 512" width="512" xmlns="http://www.w3.org/2000/svg" xmlns:xlink="http://www.w3.org/1999/xlink"><linearGradient id="linear-gradient" gradientUnits="userSpaceOnUse" x1="260" x2="260" y1="496" y2="16"><stop offset="0" stop-color="#12c2e9"/><stop offset=".5" stop-color="#c471ed"/><stop offset="1" stop-color="#f64f59"/></linearGradient><path d="m176 16a72.021 72.021 0 0 0 -71.63 79.312 72.079 72.079 0 0 0 -39.178 77.788 104.023 104.023 0 0 0 0 165.808 72.079 72.079 0 0 0 39.178 77.784 72 72 0 1 0 143.63 7.308v-336a72.081 72.081 0 0 0 -72-72zm32 88h24v216a32.036 32.036 0 0 1 -32-32v-8a8 8 0 0 0 -16 0v8a48.055 48.055 0 0 0 48 48v88a56 56 0 0 1 -112 0c0-.6.024-1.188.042-1.782a72.045 72.045 0 0 0 86.643-56.5 8 8 0 1 0 -15.71-3.029 56.031 56.031 0 0 1 -74.939 41.645h-.007-.009a56.086 56.086 0 0 1 -34.138-66.781 8 8 0 0 0 -3.239-8.672 88.032 88.032 0 0 1 0-145.744 8 8 0 0 0 3.239-8.672 56.086 56.086 0 0 1 34.138-66.781h.009.007a56.031 56.031 0 0 1 74.939 41.646 8 8 0 1 0 15.71-3.03 72.045 72.045 0 0 0 -86.643-56.5c-.018-.612-.042-1.2-.042-1.8a56 56 0 0 1 112 0h-24a8 8 0 0 0 0 16zm0 88v8a48.07 48.07 0 0 1 -40 47.321v.679a48.055 48.055 0 0 1 -48 48h-8a8 8 0 0 1 0-16h8a32.036 32.036 0 0 0 32-32v-.679a48.07 48.07 0 0 1 -40-47.321v-8a8 8 0 0 1 16 0v8a32 32 0 0 0 64 0v-8a8 8 0 0 1 16 0zm288 64a103.975 103.975 0 0 0 -41.192-82.9 72.079 72.079 0 0 0 -39.178-77.788 72 72 0 1 0 -143.63-7.312v336a72 72 0 1 0 143.63-7.312 72.079 72.079 0 0 0 39.178-77.788 103.974 103.974 0 0 0 41.192-82.9zm-54.643 72.871a8 8 0 0 0 -3.239 8.673 56.086 56.086 0 0 1 -34.138 66.781h-.009-.007a56.031 56.031 0 0 1 -74.939-41.645 8 8 0 1 0 -15.71 3.029 72.045 72.045 0 0 0 86.643 56.5c.018.594.042 1.187.042 1.782a56 56 0 0 1 -112 0v-87.991a48.055 48.055 0 0 0 48-48v-8a8 8 0 0 0 -16 0v8a32.036 32.036 0 0 1 -32 32v-216h24a8 8 0 0 0 0-16h-24a56 56 0 0 1 112 0c0 .595-.024 1.188-.042 1.782a72.045 72.045 0 0 0 -86.643 56.5 8 8 0 1 0 15.71 3.03 56.031 56.031 0 0 1 74.939-41.646h.007.009a56.087 56.087 0 0 1 34.138 66.782 8 8 0 0 0 3.239 8.672 88.03 88.03 0 0 1 0 145.742zm-25.357-40.871a8 8 0 0 1 -8 8h-8a48.055 48.055 0 0 1 -48-48v-.679a48.07 48.07 0 0 1 -40-47.321v-8a8 8 0 0 1 16 0v8a32 32 0 0 0 64 0v-8a8 8 0 0 1 16 0v8a48.07 48.07 0 0 1 -40 47.321v.679a32.036 32.036 0 0 0 32 32h8a8 8 0 0 1 8 8z" fill="url(#linear-gradient)"/></svg>